STARTFONT 2.1
FONT -FontForge-Syncopate-Book-R-Normal--10-100-72-72-P-75-ISO10646-1
SIZE 10 72 72
FONTBOUNDINGBOX 18 13 -2 -3
COMMENT "Generated by fontforge, http://fontforge.sourceforge.net"
COMMENT "Copyright (c) 2010 by Brian J. Bonislawsky DBA Astigmatic (AOETI). All rights reserved. Available under the Apache 2.0 licence.http://www.apache.org/licenses/LICENSE-2.0.html"
STARTPROPERTIES 39
FOUNDRY "FontForge"
FAMILY_NAME "Syncopate"
WEIGHT_NAME "Book"
SLANT "R"
SETWIDTH_NAME "Normal"
ADD_STYLE_NAME ""
PIXEL_SIZE 10
POINT_SIZE 100
RESOLUTION_X 72
RESOLUTION_Y 72
SPACING "P"
AVERAGE_WIDTH 75
CHARSET_REGISTRY "ISO10646"
CHARSET_ENCODING "1"
FONTNAME_REGISTRY ""
CHARSET_COLLECTIONS "ISO8859-2 ISO8859-9 ISO8859-4 ISO10646-1"
FONT_NAME "Syncopate-Regular"
FACE_NAME "Syncopate Regular"
COPYRIGHT "Copyright (c) 2010 by Brian J. Bonislawsky DBA Astigmatic (AOETI). All rights reserved. Available under the Apache 2.0 licence.http://www.apache.org/licenses/LICENSE-2.0.html"
FONT_VERSION "001.001"
FONT_ASCENT 8
FONT_DESCENT 2
UNDERLINE_POSITION -1
UNDERLINE_THICKNESS 1
X_HEIGHT 6
CAP_HEIGHT 6
RAW_ASCENT 799
RAW_DESCENT 200
NORM_SPACE 4
RELATIVE_WEIGHT 40
RELATIVE_SETWIDTH 70
SUPERSCRIPT_X 0
SUPERSCRIPT_Y 2
SUPERSCRIPT_SIZE 2
SUBSCRIPT_X 0
SUBSCRIPT_Y 2
SUBSCRIPT_SIZE 2
AVG_LOWERCASE_WIDTH 85
AVG_UPPERCASE_WIDTH 82
ENDPROPERTIES
CHARS 370
STARTCHAR space
ENCODING 32
SWIDTH 375 0
DWIDTH 4 0
BBX 1 1 0 0
BITMAP
00
ENDCHAR
STARTCHAR exclam
ENCODING 33
SWIDTH 274 0
DWIDTH 3 0
BBX 1 7 1 0
BITMAP
80
80
80
80
80
00
80
ENDCHAR
STARTCHAR quotedbl
ENCODING 34
SWIDTH 290 0
DWIDTH 3 0
BBX 3 2 0 5
BITMAP
A0
A0
ENDCHAR
STARTCHAR numbersign
ENCODING 35
SWIDTH 701 0
DWIDTH 7 0
BBX 7 7 0 0
BITMAP
24
24
7E
24
24
FE
48
ENDCHAR
STARTCHAR dollar
ENCODING 36
SWIDTH 767 0
DWIDTH 8 0
BBX 6 9 1 -1
BITMAP
20
78
A0
A0
78
24
24
F8
20
ENDCHAR
STARTCHAR percent
ENCODING 37
SWIDTH 992 0
DWIDTH 10 0
BBX 9 7 0 0
BITMAP
6100
9200
6400
0800
1300
2480
4300
ENDCHAR
STARTCHAR ampersand
ENCODING 38
SWIDTH 926 0
DWIDTH 9 0
BBX 8 7 1 0
BITMAP
30
48
50
60
9A
86
7F
ENDCHAR
STARTCHAR quotesingle
ENCODING 39
SWIDTH 140 0
DWIDTH 1 0
BBX 1 2 0 5
BITMAP
80
80
ENDCHAR
STARTCHAR parenleft
ENCODING 40
SWIDTH 420 0
DWIDTH 4 0
BBX 2 8 1 -1
BITMAP
40
80
80
80
80
80
80
40
ENDCHAR
STARTCHAR parenright
ENCODING 41
SWIDTH 420 0
DWIDTH 4 0
BBX 2 8 1 -1
BITMAP
80
40
40
40
40
40
40
80
ENDCHAR
STARTCHAR asterisk
ENCODING 42
SWIDTH 503 0
DWIDTH 5 0
BBX 5 4 0 3
BITMAP
20
F8
70
A8
ENDCHAR
STARTCHAR plus
ENCODING 43
SWIDTH 634 0
DWIDTH 6 0
BBX 5 5 1 1
BITMAP
20
20
F8
20
20
ENDCHAR
STARTCHAR comma
ENCODING 44
SWIDTH 185 0
DWIDTH 2 0
BBX 1 2 0 -1
BITMAP
80
80
ENDCHAR
STARTCHAR hyphen
ENCODING 45
SWIDTH 540 0
DWIDTH 5 0
BBX 4 1 1 3
BITMAP
F0
ENDCHAR
STARTCHAR period
ENCODING 46
SWIDTH 185 0
DWIDTH 2 0
BBX 1 1 1 0
BITMAP
80
ENDCHAR
STARTCHAR slash
ENCODING 47
SWIDTH 500 0
DWIDTH 5 0
BBX 4 7 1 0
BITMAP
10
20
20
20
40
40
80
ENDCHAR
STARTCHAR zero
ENCODING 48
SWIDTH 833 0
DWIDTH 8 0
BBX 7 7 1 0
BITMAP
38
44
82
82
82
44
38
ENDCHAR
STARTCHAR one
ENCODING 49
SWIDTH 339 0
DWIDTH 3 0
BBX 2 7 0 0
BITMAP
C0
40
40
40
40
40
40
ENDCHAR
STARTCHAR two
ENCODING 50
SWIDTH 728 0
DWIDTH 7 0
BBX 6 7 1 0
BITMAP
F8
04
04
08
10
60
FC
ENDCHAR
STARTCHAR three
ENCODING 51
SWIDTH 726 0
DWIDTH 7 0
BBX 5 7 1 0
BITMAP
F0
08
08
30
08
08
F0
ENDCHAR
STARTCHAR four
ENCODING 52
SWIDTH 769 0
DWIDTH 8 0
BBX 7 7 1 0
BITMAP
18
28
48
88
FE
08
08
ENDCHAR
STARTCHAR five
ENCODING 53
SWIDTH 738 0
DWIDTH 7 0
BBX 6 7 1 0
BITMAP
F8
80
80
F8
04
04
F8
ENDCHAR
STARTCHAR six
ENCODING 54
SWIDTH 772 0
DWIDTH 8 0
BBX 6 7 1 0
BITMAP
38
40
80
B8
C4
84
78
ENDCHAR
STARTCHAR seven
ENCODING 55
SWIDTH 669 0
DWIDTH 7 0
BBX 6 7 0 0
BITMAP
FC
08
08
10
10
20
40
ENDCHAR
STARTCHAR eight
ENCODING 56
SWIDTH 793 0
DWIDTH 8 0
BBX 6 7 1 0
BITMAP
78
84
84
78
CC
84
78
ENDCHAR
STARTCHAR nine
ENCODING 57
SWIDTH 776 0
DWIDTH 8 0
BBX 6 7 1 0
BITMAP
78
84
84
7C
04
08
70
ENDCHAR
STARTCHAR colon
ENCODING 58
SWIDTH 245 0
DWIDTH 2 0
BBX 1 5 1 0
BITMAP
80
00
00
00
80
ENDCHAR
STARTCHAR semicolon
ENCODING 59
SWIDTH 234 0
DWIDTH 2 0
BBX 1 6 0 -1
BITMAP
80
00
00
00
80
80
ENDCHAR
STARTCHAR less
ENCODING 60
SWIDTH 634 0
DWIDTH 6 0
BBX 5 5 1 1
BITMAP
08
70
80
70
08
ENDCHAR
STARTCHAR equal
ENCODING 61
SWIDTH 634 0
DWIDTH 6 0
BBX 5 3 1 2
BITMAP
F8
00
F8
ENDCHAR
STARTCHAR greater
ENCODING 62
SWIDTH 634 0
DWIDTH 6 0
BBX 5 5 1 1
BITMAP
80
70
08
70
80
ENDCHAR
STARTCHAR question
ENCODING 63
SWIDTH 568 0
DWIDTH 6 0
BBX 4 7 1 0
BITMAP
E0
10
10
20
40
00
40
ENDCHAR
STARTCHAR at
ENCODING 64
SWIDTH 1016 0
DWIDTH 10 0
BBX 8 7 1 0
BITMAP
3C
42
9D
A5
9E
40
3C
ENDCHAR
STARTCHAR A
ENCODING 65
SWIDTH 812 0
DWIDTH 8 0
BBX 7 7 1 0
BITMAP
10
28
28
44
44
FE
82
ENDCHAR
STARTCHAR B
ENCODING 66
SWIDTH 836 0
DWIDTH 8 0
BBX 7 7 1 0
BITMAP
F8
84
84
FC
82
82
FC
ENDCHAR
STARTCHAR C
ENCODING 67
SWIDTH 869 0
DWIDTH 9 0
BBX 7 7 1 0
BITMAP
3E
40
80
80
80
40
3E
ENDCHAR
STARTCHAR D
ENCODING 68
SWIDTH 910 0
DWIDTH 9 0
BBX 7 7 1 0
BITMAP
F8
84
82
82
82
84
F8
ENDCHAR
STARTCHAR E
ENCODING 69
SWIDTH 754 0
DWIDTH 8 0
BBX 6 7 1 0
BITMAP
FC
80
80
FC
80
80
FC
ENDCHAR
STARTCHAR F
ENCODING 70
SWIDTH 687 0
DWIDTH 7 0
BBX 5 7 1 0
BITMAP
F8
80
80
F8
80
80
80
ENDCHAR
STARTCHAR G
ENCODING 71
SWIDTH 910 0
DWIDTH 9 0
BBX 7 7 1 0
BITMAP
3E
40
80
80
8E
42
3E
ENDCHAR
STARTCHAR H
ENCODING 72
SWIDTH 949 0
DWIDTH 10 0
BBX 7 7 1 0
BITMAP
82
82
82
FE
82
82
82
ENDCHAR
STARTCHAR I
ENCODING 73
SWIDTH 287 0
DWIDTH 3 0
BBX 1 7 1 0
BITMAP
80
80
80
80
80
80
80
ENDCHAR
STARTCHAR J
ENCODING 74
SWIDTH 590 0
DWIDTH 6 0
BBX 5 7 0 0
BITMAP
08
08
08
08
08
08
F0
ENDCHAR
STARTCHAR K
ENCODING 75
SWIDTH 806 0
DWIDTH 8 0
BBX 7 7 1 0
BITMAP
86
88
B0
C0
B0
88
86
ENDCHAR
STARTCHAR L
ENCODING 76
SWIDTH 701 0
DWIDTH 7 0
BBX 6 7 1 0
BITMAP
80
80
80
80
80
80
FC
ENDCHAR
STARTCHAR M
ENCODING 77
SWIDTH 1139 0
DWIDTH 11 0
BBX 9 7 1 0
BITMAP
8080
C180
A280
A280
9480
9480
8880
ENDCHAR
STARTCHAR N
ENCODING 78
SWIDTH 936 0
DWIDTH 9 0
BBX 7 7 1 0
BITMAP
82
C2
A2
92
8A
86
82
ENDCHAR
STARTCHAR O
ENCODING 79
SWIDTH 983 0
DWIDTH 10 0
BBX 8 7 1 0
BITMAP
3C
42
81
81
81
42
3C
ENDCHAR
STARTCHAR P
ENCODING 80
SWIDTH 818 0
DWIDTH 8 0
BBX 7 7 1 0
BITMAP
FC
82
82
FC
80
80
80
ENDCHAR
STARTCHAR Q
ENCODING 81
SWIDTH 983 0
DWIDTH 10 0
BBX 9 7 1 0
BITMAP
3C00
4200
8100
8100
8100
4600
3D80
ENDCHAR
STARTCHAR R
ENCODING 82
SWIDTH 833 0
DWIDTH 8 0
BBX 6 7 1 0
BITMAP
F8
84
84
F8
90
88
84
ENDCHAR
STARTCHAR S
ENCODING 83
SWIDTH 787 0
DWIDTH 8 0
BBX 6 7 1 0
BITMAP
78
80
C0
38
04
04
F8
ENDCHAR
STARTCHAR T
ENCODING 84
SWIDTH 708 0
DWIDTH 7 0
BBX 7 7 0 0
BITMAP
FE
10
10
10
10
10
10
ENDCHAR
STARTCHAR U
ENCODING 85
SWIDTH 891 0
DWIDTH 9 0
BBX 7 7 1 0
BITMAP
82
82
82
82
82
82
7C
ENDCHAR
STARTCHAR V
ENCODING 86
SWIDTH 817 0
DWIDTH 8 0
BBX 7 7 1 0
BITMAP
82
82
44
44
28
28
10
ENDCHAR
STARTCHAR W
ENCODING 87
SWIDTH 1266 0
DWIDTH 13 0
BBX 11 7 1 0
BITMAP
8420
8A20
8A20
5240
5140
5140
2080
ENDCHAR
STARTCHAR X
ENCODING 88
SWIDTH 821 0
DWIDTH 8 0
BBX 7 7 1 0
BITMAP
82
44
28
10
28
44
82
ENDCHAR
STARTCHAR Y
ENCODING 89
SWIDTH 763 0
DWIDTH 7 0
BBX 7 7 0 0
BITMAP
82
44
28
10
10
10
10
ENDCHAR
STARTCHAR Z
ENCODING 90
SWIDTH 728 0
DWIDTH 7 0
BBX 6 7 1 0
BITMAP
FC
08
10
20
20
40
FC
ENDCHAR
STARTCHAR bracketleft
ENCODING 91
SWIDTH 409 0
DWIDTH 4 0
BBX 2 8 1 -1
BITMAP
C0
80
80
80
80
80
80
C0
ENDCHAR
STARTCHAR backslash
ENCODING 92
SWIDTH 500 0
DWIDTH 5 0
BBX 4 7 1 0
BITMAP
80
40
40
40
20
20
10
ENDCHAR
STARTCHAR bracketright
ENCODING 93
SWIDTH 409 0
DWIDTH 4 0
BBX 2 8 1 -1
BITMAP
C0
40
40
40
40
40
40
C0
ENDCHAR
STARTCHAR asciicircum
ENCODING 94
SWIDTH 459 0
DWIDTH 5 0
BBX 3 3 1 4
BITMAP
40
A0
A0
ENDCHAR
STARTCHAR underscore
ENCODING 95
SWIDTH 500 0
DWIDTH 5 0
BBX 5 1 0 -2
BITMAP
F8
ENDCHAR
STARTCHAR grave
ENCODING 96
SWIDTH 527 0
DWIDTH 5 0
BBX 2 2 1 6
BITMAP
80
40
ENDCHAR
STARTCHAR a
ENCODING 97
SWIDTH 888 0
DWIDTH 9 0
BBX 7 7 1 0
BITMAP
7C
02
02
3E
C2
86
7A
ENDCHAR
STARTCHAR b
ENCODING 98
SWIDTH 836 0
DWIDTH 8 0
BBX 7 7 1 0
BITMAP
F8
84
84
FC
82
82
FC
ENDCHAR
STARTCHAR c
ENCODING 99
SWIDTH 869 0
DWIDTH 9 0
BBX 7 7 1 0
BITMAP
3E
40
80
80
80
40
3E
ENDCHAR
STARTCHAR d
ENCODING 100
SWIDTH 910 0
DWIDTH 9 0
BBX 7 7 1 0
BITMAP
F8
84
82
82
82
84
F8
ENDCHAR
STARTCHAR e
ENCODING 101
SWIDTH 910 0
DWIDTH 9 0
BBX 7 7 1 0
BITMAP
38
44
82
FE
80
40
3E
ENDCHAR
STARTCHAR f
ENCODING 102
SWIDTH 817 0
DWIDTH 8 0
BBX 6 7 1 0
BITMAP
7C
80
80
FC
80
80
80
ENDCHAR
STARTCHAR g
ENCODING 103
SWIDTH 910 0
DWIDTH 9 0
BBX 7 7 1 0
BITMAP
3E
40
80
80
8E
42
3E
ENDCHAR
STARTCHAR h
ENCODING 104
SWIDTH 949 0
DWIDTH 10 0
BBX 7 7 1 0
BITMAP
82
82
82
FE
82
82
82
ENDCHAR
STARTCHAR i
ENCODING 105
SWIDTH 287 0
DWIDTH 3 0
BBX 1 7 1 0
BITMAP
80
80
80
80
80
80
80
ENDCHAR
STARTCHAR j
ENCODING 106
SWIDTH 590 0
DWIDTH 6 0
BBX 5 7 0 0
BITMAP
08
08
08
08
08
08
F0
ENDCHAR
STARTCHAR k
ENCODING 107
SWIDTH 867 0
DWIDTH 9 0
BBX 7 7 1 0
BITMAP
82
84
88
F0
8C
82
82
ENDCHAR
STARTCHAR l
ENCODING 108
SWIDTH 709 0
DWIDTH 7 0
BBX 6 7 1 0
BITMAP
80
80
80
80
80
80
7C
ENDCHAR
STARTCHAR m
ENCODING 109
SWIDTH 1246 0
DWIDTH 12 0
BBX 11 7 1 0
BITMAP
B9C0
C620
8420
8420
8420
8420
8420
ENDCHAR
STARTCHAR n
ENCODING 110
SWIDTH 933 0
DWIDTH 9 0
BBX 7 7 1 0
BITMAP
BC
C2
82
82
82
82
82
ENDCHAR
STARTCHAR o
ENCODING 111
SWIDTH 983 0
DWIDTH 10 0
BBX 8 7 1 0
BITMAP
3C
42
81
81
81
42
3C
ENDCHAR
STARTCHAR p
ENCODING 112
SWIDTH 818 0
DWIDTH 8 0
BBX 7 7 1 0
BITMAP
FC
82
82
FC
80
80
80
ENDCHAR
STARTCHAR q
ENCODING 113
SWIDTH 983 0
DWIDTH 10 0
BBX 9 7 1 0
BITMAP
3C00
4200
8100
8100
8100
4200
3F80
ENDCHAR
STARTCHAR r
ENCODING 114
SWIDTH 609 0
DWIDTH 6 0
BBX 5 7 1 0
BITMAP
B8
C0
80
80
80
80
80
ENDCHAR
STARTCHAR s
ENCODING 115
SWIDTH 787 0
DWIDTH 8 0
BBX 6 7 1 0
BITMAP
78
80
C0
38
04
04
F8
ENDCHAR
STARTCHAR t
ENCODING 116
SWIDTH 708 0
DWIDTH 7 0
BBX 7 7 0 0
BITMAP
FE
10
10
10
10
10
10
ENDCHAR
STARTCHAR u
ENCODING 117
SWIDTH 931 0
DWIDTH 9 0
BBX 7 7 1 0
BITMAP
82
82
82
82
82
86
7A
ENDCHAR
STARTCHAR v
ENCODING 118
SWIDTH 817 0
DWIDTH 8 0
BBX 7 7 1 0
BITMAP
82
82
44
44
28
28
10
ENDCHAR
STARTCHAR w
ENCODING 119
SWIDTH 1266 0
DWIDTH 13 0
BBX 11 7 1 0
BITMAP
8420
8A20
8A20
5240
5140
5140
2080
ENDCHAR
STARTCHAR x
ENCODING 120
SWIDTH 821 0
DWIDTH 8 0
BBX 7 7 1 0
BITMAP
82
44
28
10
28
44
82
ENDCHAR
STARTCHAR y
ENCODING 121
SWIDTH 911 0
DWIDTH 9 0
BBX 7 7 1 0
BITMAP
82
82
82
86
7A
04
F8
ENDCHAR
STARTCHAR z
ENCODING 122
SWIDTH 728 0
DWIDTH 7 0
BBX 6 7 1 0
BITMAP
FC
08
10
20
20
40
FC
ENDCHAR
STARTCHAR braceleft
ENCODING 123
SWIDTH 386 0
DWIDTH 4 0
BBX 3 8 1 -1
BITMAP
20
40
40
40
80
40
40
20
ENDCHAR
STARTCHAR bar
ENCODING 124
SWIDTH 259 0
DWIDTH 3 0
BBX 1 10 1 -2
BITMAP
80
80
80
80
80
80
80
80
80
80
ENDCHAR
STARTCHAR braceright
ENCODING 125
SWIDTH 386 0
DWIDTH 4 0
BBX 3 8 1 -1
BITMAP
80
40
40
40
20
40
40
80
ENDCHAR
STARTCHAR asciitilde
ENCODING 126
SWIDTH 634 0
DWIDTH 6 0
BBX 5 2 1 3
BITMAP
68
90
ENDCHAR
STARTCHAR nonbreakingspace
ENCODING 160
SWIDTH 375 0
DWIDTH 4 0
BBX 1 1 0 0
BITMAP
00
ENDCHAR
STARTCHAR exclamdown
ENCODING 161
SWIDTH 274 0
DWIDTH 3 0
BBX 1 7 1 0
BITMAP
80
00
80
80
80
80
80
ENDCHAR
STARTCHAR cent
ENCODING 162
SWIDTH 736 0
DWIDTH 7 0
BBX 6 8 1 -1
BITMAP
10
7C
90
90
90
90
7C
10
ENDCHAR
STARTCHAR sterling
ENCODING 163
SWIDTH 792 0
DWIDTH 8 0
BBX 6 7 1 0
BITMAP
3C
40
40
F8
40
40
FC
ENDCHAR
STARTCHAR currency
ENCODING 164
SWIDTH 560 0
DWIDTH 6 0
BBX 4 4 1 2
BITMAP
F0
90
90
F0
ENDCHAR
STARTCHAR yen
ENCODING 165
SWIDTH 811 0
DWIDTH 8 0
BBX 7 7 1 0
BITMAP
82
44
28
EE
10
FE
10
ENDCHAR
STARTCHAR brokenbar
ENCODING 166
SWIDTH 259 0
DWIDTH 3 0
BBX 1 9 1 -2
BITMAP
80
80
80
80
00
80
80
80
80
ENDCHAR
STARTCHAR section
ENCODING 167
SWIDTH 500 0
DWIDTH 5 0
BBX 4 7 1 0
BITMAP
70
80
E0
90
70
10
E0
ENDCHAR
STARTCHAR dieresis
ENCODING 168
SWIDTH 527 0
DWIDTH 5 0
BBX 3 1 1 6
BITMAP
A0
ENDCHAR
STARTCHAR copyright
ENCODING 169
SWIDTH 770 0
DWIDTH 8 0
BBX 7 7 1 0
BITMAP
38
44
92
A2
92
44
38
ENDCHAR
STARTCHAR ordfeminine
ENCODING 170
SWIDTH 497 0
DWIDTH 5 0
BBX 4 5 0 2
BITMAP
F0
F0
F0
00
F0
ENDCHAR
STARTCHAR guillemotleft
ENCODING 171
SWIDTH 440 0
DWIDTH 4 0
BBX 4 3 0 2
BITMAP
50
A0
50
ENDCHAR
STARTCHAR logicalnot
ENCODING 172
SWIDTH 634 0
DWIDTH 6 0
BBX 5 3 1 2
BITMAP
F8
08
08
ENDCHAR
STARTCHAR uni00AD
ENCODING 173
SWIDTH 540 0
DWIDTH 5 0
BBX 4 1 1 3
BITMAP
F0
ENDCHAR
STARTCHAR registered
ENCODING 174
SWIDTH 600 0
DWIDTH 6 0
BBX 5 5 1 2
BITMAP
70
B8
B8
B8
70
ENDCHAR
STARTCHAR macron
ENCODING 175
SWIDTH 527 0
DWIDTH 5 0
BBX 3 1 1 6
BITMAP
E0
ENDCHAR
STARTCHAR degree
ENCODING 176
SWIDTH 373 0
DWIDTH 4 0
BBX 2 2 1 5
BITMAP
C0
C0
ENDCHAR
STARTCHAR plusminus
ENCODING 177
SWIDTH 634 0
DWIDTH 6 0
BBX 5 6 1 0
BITMAP
20
20
F8
20
20
F8
ENDCHAR
STARTCHAR twosuperior
ENCODING 178
SWIDTH 511 0
DWIDTH 5 0
BBX 4 4 0 3
BITMAP
E0
10
20
F0
ENDCHAR
STARTCHAR threesuperior
ENCODING 179
SWIDTH 512 0
DWIDTH 5 0
BBX 4 4 0 3
BITMAP
F0
60
10
F0
ENDCHAR
STARTCHAR acute
ENCODING 180
SWIDTH 527 0
DWIDTH 5 0
BBX 2 2 2 6
BITMAP
40
80
ENDCHAR
STARTCHAR micro
ENCODING 181
SWIDTH 705 0
DWIDTH 7 0
BBX 6 7 1 -2
BITMAP
44
44
88
C8
F8
80
80
ENDCHAR
STARTCHAR paragraph
ENCODING 182
SWIDTH 585 0
DWIDTH 6 0
BBX 4 7 1 0
BITMAP
70
F0
F0
70
30
30
30
ENDCHAR
STARTCHAR periodcentered
ENCODING 183
SWIDTH 185 0
DWIDTH 2 0
BBX 1 1 1 3
BITMAP
80
ENDCHAR
STARTCHAR cedilla
ENCODING 184
SWIDTH 527 0
DWIDTH 5 0
BBX 2 2 2 -2
BITMAP
40
C0
ENDCHAR
STARTCHAR onesuperior
ENCODING 185
SWIDTH 261 0
DWIDTH 3 0
BBX 2 4 0 3
BITMAP
C0
40
40
40
ENDCHAR
STARTCHAR ordmasculine
ENCODING 186
SWIDTH 520 0
DWIDTH 5 0
BBX 5 5 0 2
BITMAP
70
88
70
00
F8
ENDCHAR
STARTCHAR guillemotright
ENCODING 187
SWIDTH 440 0
DWIDTH 4 0
BBX 4 3 0 2
BITMAP
A0
50
A0
ENDCHAR
STARTCHAR onequarter
ENCODING 188
SWIDTH 857 0
DWIDTH 9 0
BBX 8 7 0 0
BITMAP
C2
44
48
56
1A
2F
42
ENDCHAR
STARTCHAR onehalf
ENCODING 189
SWIDTH 937 0
DWIDTH 9 0
BBX 8 7 0 0
BITMAP
C2
44
48
56
11
22
47
ENDCHAR
STARTCHAR threequarters
ENCODING 190
SWIDTH 978 0
DWIDTH 10 0
BBX 8 7 1 0
BITMAP
E2
44
28
F6
1A
2F
42
ENDCHAR
STARTCHAR questiondown
ENCODING 191
SWIDTH 568 0
DWIDTH 6 0
BBX 4 7 1 0
BITMAP
20
00
20
40
80
80
70
ENDCHAR
STARTCHAR Agrave
ENCODING 192
SWIDTH 812 0
DWIDTH 8 0
BBX 7 10 1 0
BITMAP
20
10
00
10
28
28
44
44
FE
82
ENDCHAR
STARTCHAR Aacute
ENCODING 193
SWIDTH 812 0
DWIDTH 8 0
BBX 7 10 1 0
BITMAP
08
10
00
10
28
28
44
44
FE
82
ENDCHAR
STARTCHAR Acircumflex
ENCODING 194
SWIDTH 812 0
DWIDTH 8 0
BBX 7 10 1 0
BITMAP
08
34
00
10
28
28
44
44
FE
82
ENDCHAR
STARTCHAR Atilde
ENCODING 195
SWIDTH 812 0
DWIDTH 8 0
BBX 7 10 1 0
BITMAP
14
2C
00
10
28
28
44
44
FE
82
ENDCHAR
STARTCHAR Adieresis
ENCODING 196
SWIDTH 812 0
DWIDTH 8 0
BBX 7 9 1 0
BITMAP
28
00
10
28
28
44
44
FE
82
ENDCHAR
STARTCHAR Aring
ENCODING 197
SWIDTH 812 0
DWIDTH 8 0
BBX 7 10 1 0
BITMAP
38
38
00
10
28
28
44
44
FE
82
ENDCHAR
STARTCHAR AE
ENCODING 198
SWIDTH 1172 0
DWIDTH 12 0
BBX 11 7 0 0
BITMAP
0FE0
1400
1400
27E0
7C00
4400
87E0
ENDCHAR
STARTCHAR Ccedilla
ENCODING 199
SWIDTH 869 0
DWIDTH 9 0
BBX 7 9 1 -2
BITMAP
3E
40
80
80
80
40
3E
08
18
ENDCHAR
STARTCHAR Egrave
ENCODING 200
SWIDTH 754 0
DWIDTH 8 0
BBX 6 10 1 0
BITMAP
40
20
00
FC
80
80
FC
80
80
FC
ENDCHAR
STARTCHAR Eacute
ENCODING 201
SWIDTH 754 0
DWIDTH 8 0
BBX 6 10 1 0
BITMAP
10
20
00
FC
80
80
FC
80
80
FC
ENDCHAR
STARTCHAR Ecircumflex
ENCODING 202
SWIDTH 754 0
DWIDTH 8 0
BBX 6 10 1 0
BITMAP
10
68
00
FC
80
80
FC
80
80
FC
ENDCHAR
STARTCHAR Edieresis
ENCODING 203
SWIDTH 754 0
DWIDTH 8 0
BBX 6 9 1 0
BITMAP
50
00
FC
80
80
FC
80
80
FC
ENDCHAR
STARTCHAR Igrave
ENCODING 204
SWIDTH 287 0
DWIDTH 3 0
BBX 2 10 0 0
BITMAP
80
40
00
40
40
40
40
40
40
40
ENDCHAR
STARTCHAR Iacute
ENCODING 205
SWIDTH 287 0
DWIDTH 3 0
BBX 2 10 1 0
BITMAP
40
80
00
80
80
80
80
80
80
80
ENDCHAR
STARTCHAR Icircumflex
ENCODING 206
SWIDTH 287 0
DWIDTH 3 0
BBX 4 10 0 0
BITMAP
40
B0
00
40
40
40
40
40
40
40
ENDCHAR
STARTCHAR Idieresis
ENCODING 207
SWIDTH 287 0
DWIDTH 3 0
BBX 3 9 0 0
BITMAP
A0
00
40
40
40
40
40
40
40
ENDCHAR
STARTCHAR Eth
ENCODING 208
SWIDTH 910 0
DWIDTH 9 0
BBX 8 7 0 0
BITMAP
7C
42
41
F9
41
42
7C
ENDCHAR
STARTCHAR Ntilde
ENCODING 209
SWIDTH 936 0
DWIDTH 9 0
BBX 7 10 1 0
BITMAP
14
28
00
82
C2
A2
92
8A
86
82
ENDCHAR
STARTCHAR Ograve
ENCODING 210
SWIDTH 983 0
DWIDTH 10 0
BBX 8 10 1 0
BITMAP
20
10
00
3C
42
81
81
81
42
3C
ENDCHAR
STARTCHAR Oacute
ENCODING 211
SWIDTH 983 0
DWIDTH 10 0
BBX 8 10 1 0
BITMAP
08
10
00
3C
42
81
81
81
42
3C
ENDCHAR
STARTCHAR Ocircumflex
ENCODING 212
SWIDTH 983 0
DWIDTH 10 0
BBX 8 10 1 0
BITMAP
08
34
00
3C
42
81
81
81
42
3C
ENDCHAR
STARTCHAR Otilde
ENCODING 213
SWIDTH 983 0
DWIDTH 10 0
BBX 8 10 1 0
BITMAP
14
2C
00
3C
42
81
81
81
42
3C
ENDCHAR
STARTCHAR Odieresis
ENCODING 214
SWIDTH 983 0
DWIDTH 10 0
BBX 8 9 1 0
BITMAP
28
00
3C
42
81
81
81
42
3C
ENDCHAR
STARTCHAR multiply
ENCODING 215
SWIDTH 634 0
DWIDTH 6 0
BBX 4 4 1 1
BITMAP
90
60
60
90
ENDCHAR
STARTCHAR Oslash
ENCODING 216
SWIDTH 983 0
DWIDTH 10 0
BBX 8 9 1 -1
BITMAP
02
3C
46
89
91
91
62
3C
40
ENDCHAR
STARTCHAR Ugrave
ENCODING 217
SWIDTH 891 0
DWIDTH 9 0
BBX 7 10 1 0
BITMAP
20
10
00
82
82
82
82
82
82
7C
ENDCHAR
STARTCHAR Uacute
ENCODING 218
SWIDTH 891 0
DWIDTH 9 0
BBX 7 10 1 0
BITMAP
08
10
00
82
82
82
82
82
82
7C
ENDCHAR
STARTCHAR Ucircumflex
ENCODING 219
SWIDTH 891 0
DWIDTH 9 0
BBX 7 10 1 0
BITMAP
10
2C
00
82
82
82
82
82
82
7C
ENDCHAR
STARTCHAR Udieresis
ENCODING 220
SWIDTH 891 0
DWIDTH 9 0
BBX 7 9 1 0
BITMAP
28
00
82
82
82
82
82
82
7C
ENDCHAR
STARTCHAR Yacute
ENCODING 221
SWIDTH 763 0
DWIDTH 7 0
BBX 7 10 0 0
BITMAP
08
10
00
82
44
28
10
10
10
10
ENDCHAR
STARTCHAR Thorn
ENCODING 222
SWIDTH 787 0
DWIDTH 8 0
BBX 6 7 1 0
BITMAP
80
F8
84
84
F8
80
80
ENDCHAR
STARTCHAR germandbls
ENCODING 223
SWIDTH 863 0
DWIDTH 9 0
BBX 7 7 1 0
BITMAP
78
84
84
B8
86
82
BC
ENDCHAR
STARTCHAR agrave
ENCODING 224
SWIDTH 888 0
DWIDTH 9 0
BBX 7 10 1 0
BITMAP
20
10
00
7C
02
02
3E
C2
86
7A
ENDCHAR
STARTCHAR aacute
ENCODING 225
SWIDTH 888 0
DWIDTH 9 0
BBX 7 10 1 0
BITMAP
08
10
00
7C
02
02
3E
C2
86
7A
ENDCHAR
STARTCHAR acircumflex
ENCODING 226
SWIDTH 888 0
DWIDTH 9 0
BBX 7 10 1 0
BITMAP
10
2C
00
7C
02
02
3E
C2
86
7A
ENDCHAR
STARTCHAR atilde
ENCODING 227
SWIDTH 888 0
DWIDTH 9 0
BBX 7 10 1 0
BITMAP
34
28
00
7C
02
02
3E
C2
86
7A
ENDCHAR
STARTCHAR adieresis
ENCODING 228
SWIDTH 888 0
DWIDTH 9 0
BBX 7 9 1 0
BITMAP
28
00
7C
02
02
3E
C2
86
7A
ENDCHAR
STARTCHAR aring
ENCODING 229
SWIDTH 888 0
DWIDTH 9 0
BBX 7 10 1 0
BITMAP
38
38
00
7C
02
02
3E
C2
86
7A
ENDCHAR
STARTCHAR ae
ENCODING 230
SWIDTH 1551 0
DWIDTH 15 0
BBX 13 7 1 0
BITMAP
7CE0
0310
0208
3FF8
C200
8300
7CF8
ENDCHAR
STARTCHAR ccedilla
ENCODING 231
SWIDTH 869 0
DWIDTH 9 0
BBX 7 9 1 -2
BITMAP
3E
40
80
80
80
40
3E
08
18
ENDCHAR
STARTCHAR egrave
ENCODING 232
SWIDTH 910 0
DWIDTH 9 0
BBX 7 10 1 0
BITMAP
20
10
00
38
44
82
FE
80
40
3E
ENDCHAR
STARTCHAR eacute
ENCODING 233
SWIDTH 910 0
DWIDTH 9 0
BBX 7 10 1 0
BITMAP
08
10
00
38
44
82
FE
80
40
3E
ENDCHAR
STARTCHAR ecircumflex
ENCODING 234
SWIDTH 910 0
DWIDTH 9 0
BBX 7 10 1 0
BITMAP
18
24
00
38
44
82
FE
80
40
3E
ENDCHAR
STARTCHAR edieresis
ENCODING 235
SWIDTH 910 0
DWIDTH 9 0
BBX 7 9 1 0
BITMAP
28
00
38
44
82
FE
80
40
3E
ENDCHAR
STARTCHAR igrave
ENCODING 236
SWIDTH 287 0
DWIDTH 3 0
BBX 2 10 0 0
BITMAP
80
40
00
40
40
40
40
40
40
40
ENDCHAR
STARTCHAR iacute
ENCODING 237
SWIDTH 287 0
DWIDTH 3 0
BBX 2 10 1 0
BITMAP
40
80
00
80
80
80
80
80
80
80
ENDCHAR
STARTCHAR icircumflex
ENCODING 238
SWIDTH 287 0
DWIDTH 3 0
BBX 4 10 0 0
BITMAP
40
B0
00
40
40
40
40
40
40
40
ENDCHAR
STARTCHAR idieresis
ENCODING 239
SWIDTH 287 0
DWIDTH 3 0
BBX 3 9 0 0
BITMAP
A0
00
40
40
40
40
40
40
40
ENDCHAR
STARTCHAR eth
ENCODING 240
SWIDTH 910 0
DWIDTH 9 0
BBX 8 7 0 0
BITMAP
7C
42
41
F9
41
42
7C
ENDCHAR
STARTCHAR ntilde
ENCODING 241
SWIDTH 933 0
DWIDTH 9 0
BBX 7 10 1 0
BITMAP
34
28
00
BC
C2
82
82
82
82
82
ENDCHAR
STARTCHAR ograve
ENCODING 242
SWIDTH 983 0
DWIDTH 10 0
BBX 8 10 1 0
BITMAP
20
10
00
3C
42
81
81
81
42
3C
ENDCHAR
STARTCHAR oacute
ENCODING 243
SWIDTH 983 0
DWIDTH 10 0
BBX 8 10 1 0
BITMAP
08
10
00
3C
42
81
81
81
42
3C
ENDCHAR
STARTCHAR ocircumflex
ENCODING 244
SWIDTH 983 0
DWIDTH 10 0
BBX 8 10 1 0
BITMAP
08
34
00
3C
42
81
81
81
42
3C
ENDCHAR
STARTCHAR otilde
ENCODING 245
SWIDTH 983 0
DWIDTH 10 0
BBX 8 10 1 0
BITMAP
14
2C
00
3C
42
81
81
81
42
3C
ENDCHAR
STARTCHAR odieresis
ENCODING 246
SWIDTH 983 0
DWIDTH 10 0
BBX 8 9 1 0
BITMAP
28
00
3C
42
81
81
81
42
3C
ENDCHAR
STARTCHAR divide
ENCODING 247
SWIDTH 634 0
DWIDTH 6 0
BBX 5 5 1 1
BITMAP
20
00
F8
00
20
ENDCHAR
STARTCHAR oslash
ENCODING 248
SWIDTH 983 0
DWIDTH 10 0
BBX 8 9 1 -1
BITMAP
02
3C
46
89
91
91
62
3C
40
ENDCHAR
STARTCHAR ugrave
ENCODING 249
SWIDTH 931 0
DWIDTH 9 0
BBX 7 10 1 0
BITMAP
20
10
00
82
82
82
82
82
86
7A
ENDCHAR
STARTCHAR uacute
ENCODING 250
SWIDTH 931 0
DWIDTH 9 0
BBX 7 10 1 0
BITMAP
08
10
00
82
82
82
82
82
86
7A
ENDCHAR
STARTCHAR ucircumflex
ENCODING 251
SWIDTH 931 0
DWIDTH 9 0
BBX 7 10 1 0
BITMAP
18
24
00
82
82
82
82
82
86
7A
ENDCHAR
STARTCHAR udieresis
ENCODING 252
SWIDTH 931 0
DWIDTH 9 0
BBX 7 9 1 0
BITMAP
28
00
82
82
82
82
82
86
7A
ENDCHAR
STARTCHAR yacute
ENCODING 253
SWIDTH 911 0
DWIDTH 9 0
BBX 7 10 1 0
BITMAP
08
10
00
82
82
82
86
7A
04
F8
ENDCHAR
STARTCHAR thorn
ENCODING 254
SWIDTH 787 0
DWIDTH 8 0
BBX 6 7 1 0
BITMAP
80
F8
84
84
F8
80
80
ENDCHAR
STARTCHAR ydieresis
ENCODING 255
SWIDTH 911 0
DWIDTH 9 0
BBX 7 9 1 0
BITMAP
28
00
82
82
82
86
7A
04
F8
ENDCHAR
STARTCHAR Amacron
ENCODING 256
SWIDTH 812 0
DWIDTH 8 0
BBX 7 9 1 0
BITMAP
38
00
10
28
28
44
44
FE
82
ENDCHAR
STARTCHAR amacron
ENCODING 257
SWIDTH 888 0
DWIDTH 9 0
BBX 7 9 1 0
BITMAP
38
00
7C
02
02
3E
C2
86
7A
ENDCHAR
STARTCHAR Abreve
ENCODING 258
SWIDTH 812 0
DWIDTH 8 0
BBX 7 9 1 0
BITMAP
38
00
10
28
28
44
44
FE
82
ENDCHAR
STARTCHAR abreve
ENCODING 259
SWIDTH 888 0
DWIDTH 9 0
BBX 7 9 1 0
BITMAP
38
00
7C
02
02
3E
C2
86
7A
ENDCHAR
STARTCHAR Aogonek
ENCODING 260
SWIDTH 812 0
DWIDTH 8 0
BBX 8 9 1 -2
BITMAP
10
28
28
44
44
FE
82
02
03
ENDCHAR
STARTCHAR aogonek
ENCODING 261
SWIDTH 888 0
DWIDTH 9 0
BBX 7 9 1 -2
BITMAP
7C
02
02
3E
C2
82
7E
04
06
ENDCHAR
STARTCHAR Cacute
ENCODING 262
SWIDTH 869 0
DWIDTH 9 0
BBX 7 10 1 0
BITMAP
08
10
00
3E
40
80
80
80
40
3E
ENDCHAR
STARTCHAR cacute
ENCODING 263
SWIDTH 869 0
DWIDTH 9 0
BBX 7 10 1 0
BITMAP
08
10
00
3E
40
80
80
80
40
3E
ENDCHAR
STARTCHAR Ccircumflex
ENCODING 264
SWIDTH 869 0
DWIDTH 9 0
BBX 7 10 1 0
BITMAP
08
34
00
3E
40
80
80
80
40
3E
ENDCHAR
STARTCHAR ccircumflex
ENCODING 265
SWIDTH 869 0
DWIDTH 9 0
BBX 7 10 1 0
BITMAP
08
34
00
3E
40
80
80
80
40
3E
ENDCHAR
STARTCHAR Cdotaccent
ENCODING 266
SWIDTH 869 0
DWIDTH 9 0
BBX 7 9 1 0
BITMAP
08
00
3E
40
80
80
80
40
3E
ENDCHAR
STARTCHAR cdotaccent
ENCODING 267
SWIDTH 869 0
DWIDTH 9 0
BBX 7 9 1 0
BITMAP
08
00
3E
40
80
80
80
40
3E
ENDCHAR
STARTCHAR Ccaron
ENCODING 268
SWIDTH 869 0
DWIDTH 9 0
BBX 7 10 1 0
BITMAP
24
18
00
3E
40
80
80
80
40
3E
ENDCHAR
STARTCHAR ccaron
ENCODING 269
SWIDTH 869 0
DWIDTH 9 0
BBX 7 10 1 0
BITMAP
24
18
00
3E
40
80
80
80
40
3E
ENDCHAR
STARTCHAR Dcaron
ENCODING 270
SWIDTH 910 0
DWIDTH 9 0
BBX 7 10 1 0
BITMAP
48
30
00
F8
84
82
82
82
84
F8
ENDCHAR
STARTCHAR dcaron
ENCODING 271
SWIDTH 910 0
DWIDTH 9 0
BBX 7 10 1 0
BITMAP
48
30
00
F8
84
82
82
82
84
F8
ENDCHAR
STARTCHAR Dcroat
ENCODING 272
SWIDTH 910 0
DWIDTH 9 0
BBX 8 7 0 0
BITMAP
7C
42
41
F9
41
42
7C
ENDCHAR
STARTCHAR dcroat
ENCODING 273
SWIDTH 910 0
DWIDTH 9 0
BBX 8 7 0 0
BITMAP
7C
42
41
F9
41
42
7C
ENDCHAR
STARTCHAR Emacron
ENCODING 274
SWIDTH 754 0
DWIDTH 8 0
BBX 6 9 1 0
BITMAP
70
00
FC
80
80
FC
80
80
FC
ENDCHAR
STARTCHAR emacron
ENCODING 275
SWIDTH 910 0
DWIDTH 9 0
BBX 7 9 1 0
BITMAP
38
00
38
44
82
FE
80
40
3E
ENDCHAR
STARTCHAR Ebreve
ENCODING 276
SWIDTH 754 0
DWIDTH 8 0
BBX 6 9 1 0
BITMAP
38
00
FC
80
80
FC
80
80
FC
ENDCHAR
STARTCHAR ebreve
ENCODING 277
SWIDTH 910 0
DWIDTH 9 0
BBX 7 9 1 0
BITMAP
38
00
38
44
82
FE
80
40
3E
ENDCHAR
STARTCHAR Edotaccent
ENCODING 278
SWIDTH 754 0
DWIDTH 8 0
BBX 6 9 1 0
BITMAP
20
00
FC
80
80
FC
80
80
FC
ENDCHAR
STARTCHAR edotaccent
ENCODING 279
SWIDTH 910 0
DWIDTH 9 0
BBX 7 9 1 0
BITMAP
10
00
38
44
82
FE
80
40
3E
ENDCHAR
STARTCHAR Eogonek
ENCODING 280
SWIDTH 754 0
DWIDTH 8 0
BBX 6 9 1 -2
BITMAP
FC
80
80
FC
80
80
FC
08
0C
ENDCHAR
STARTCHAR eogonek
ENCODING 281
SWIDTH 910 0
DWIDTH 9 0
BBX 7 9 1 -2
BITMAP
38
44
82
FE
80
40
3E
04
06
ENDCHAR
STARTCHAR Ecaron
ENCODING 282
SWIDTH 754 0
DWIDTH 8 0
BBX 6 10 1 0
BITMAP
48
30
00
FC
80
80
FC
80
80
FC
ENDCHAR
STARTCHAR ecaron
ENCODING 283
SWIDTH 910 0
DWIDTH 9 0
BBX 7 10 1 0
BITMAP
24
18
00
38
44
82
FE
80
40
3E
ENDCHAR
STARTCHAR Gcircumflex
ENCODING 284
SWIDTH 910 0
DWIDTH 9 0
BBX 7 10 1 0
BITMAP
08
34
00
3E
40
80
80
8E
42
3E
ENDCHAR
STARTCHAR gcircumflex
ENCODING 285
SWIDTH 910 0
DWIDTH 9 0
BBX 7 10 1 0
BITMAP
08
34
00
3E
40
80
80
8E
42
3E
ENDCHAR
STARTCHAR Gbreve
ENCODING 286
SWIDTH 910 0
DWIDTH 9 0
BBX 7 9 1 0
BITMAP
38
00
3E
40
80
80
8E
42
3E
ENDCHAR
STARTCHAR gbreve
ENCODING 287
SWIDTH 910 0
DWIDTH 9 0
BBX 7 9 1 0
BITMAP
38
00
3E
40
80
80
8E
42
3E
ENDCHAR
STARTCHAR Gdotaccent
ENCODING 288
SWIDTH 910 0
DWIDTH 9 0
BBX 7 9 1 0
BITMAP
08
00
3E
40
80
80
8E
42
3E
ENDCHAR
STARTCHAR gdotaccent
ENCODING 289
SWIDTH 910 0
DWIDTH 9 0
BBX 7 9 1 0
BITMAP
08
00
3E
40
80
80
8E
42
3E
ENDCHAR
STARTCHAR Gcommaaccent
ENCODING 290
SWIDTH 910 0
DWIDTH 9 0
BBX 7 10 1 -3
BITMAP
3E
40
80
80
8E
42
3E
00
08
08
ENDCHAR
STARTCHAR gcommaaccent
ENCODING 291
SWIDTH 910 0
DWIDTH 9 0
BBX 7 10 1 -3
BITMAP
3E
40
80
80
8E
42
3E
00
08
08
ENDCHAR
STARTCHAR Hcircumflex
ENCODING 292
SWIDTH 949 0
DWIDTH 10 0
BBX 7 10 1 0
BITMAP
08
34
00
82
82
82
FE
82
82
82
ENDCHAR
STARTCHAR hcircumflex
ENCODING 293
SWIDTH 949 0
DWIDTH 10 0
BBX 7 10 1 0
BITMAP
08
34
00
82
82
82
FE
82
82
82
ENDCHAR
STARTCHAR Hbar
ENCODING 294
SWIDTH 949 0
DWIDTH 10 0
BBX 9 7 0 0
BITMAP
4100
FF80
4100
7F00
4100
4100
4100
ENDCHAR
STARTCHAR hbar
ENCODING 295
SWIDTH 949 0
DWIDTH 10 0
BBX 9 7 0 0
BITMAP
4100
FF80
4100
7F00
4100
4100
4100
ENDCHAR
STARTCHAR Itilde
ENCODING 296
SWIDTH 287 0
DWIDTH 3 0
BBX 4 10 0 0
BITMAP
D0
A0
00
40
40
40
40
40
40
40
ENDCHAR
STARTCHAR itilde
ENCODING 297
SWIDTH 287 0
DWIDTH 3 0
BBX 4 10 0 0
BITMAP
D0
A0
00
40
40
40
40
40
40
40
ENDCHAR
STARTCHAR Imacron
ENCODING 298
SWIDTH 287 0
DWIDTH 3 0
BBX 3 9 0 0
BITMAP
E0
00
40
40
40
40
40
40
40
ENDCHAR
STARTCHAR imacron
ENCODING 299
SWIDTH 287 0
DWIDTH 3 0
BBX 3 9 0 0
BITMAP
E0
00
40
40
40
40
40
40
40
ENDCHAR
STARTCHAR Ibreve
ENCODING 300
SWIDTH 287 0
DWIDTH 3 0
BBX 3 9 0 0
BITMAP
E0
00
40
40
40
40
40
40
40
ENDCHAR
STARTCHAR ibreve
ENCODING 301
SWIDTH 287 0
DWIDTH 3 0
BBX 3 9 0 0
BITMAP
E0
00
40
40
40
40
40
40
40
ENDCHAR
STARTCHAR Iogonek
ENCODING 302
SWIDTH 287 0
DWIDTH 3 0
BBX 2 9 0 -2
BITMAP
40
40
40
40
40
40
40
80
C0
ENDCHAR
STARTCHAR iogonek
ENCODING 303
SWIDTH 287 0
DWIDTH 3 0
BBX 2 9 0 -2
BITMAP
40
40
40
40
40
40
40
80
C0
ENDCHAR
STARTCHAR Idotaccent
ENCODING 304
SWIDTH 287 0
DWIDTH 3 0
BBX 1 9 1 0
BITMAP
80
00
80
80
80
80
80
80
80
ENDCHAR
STARTCHAR dotlessi
ENCODING 305
SWIDTH 287 0
DWIDTH 3 0
BBX 1 7 1 0
BITMAP
80
80
80
80
80
80
80
ENDCHAR
STARTCHAR IJ
ENCODING 306
SWIDTH 877 0
DWIDTH 9 0
BBX 7 7 1 0
BITMAP
82
82
82
82
82
86
BC
ENDCHAR
STARTCHAR ij
ENCODING 307
SWIDTH 877 0
DWIDTH 9 0
BBX 7 7 1 0
BITMAP
82
82
82
82
82
86
BC
ENDCHAR
STARTCHAR Jcircumflex
ENCODING 308
SWIDTH 590 0
DWIDTH 6 0
BBX 6 10 0 0
BITMAP
10
2C
00
08
08
08
08
08
08
F0
ENDCHAR
STARTCHAR jcircumflex
ENCODING 309
SWIDTH 590 0
DWIDTH 6 0
BBX 6 10 0 0
BITMAP
10
2C
00
08
08
08
08
08
08
F0
ENDCHAR
STARTCHAR Kcommaaccent
ENCODING 310
SWIDTH 806 0
DWIDTH 8 0
BBX 7 10 1 -3
BITMAP
86
88
B0
C0
B0
88
86
00
20
20
ENDCHAR
STARTCHAR kcommaaccent
ENCODING 311
SWIDTH 867 0
DWIDTH 9 0
BBX 7 10 1 -3
BITMAP
82
84
88
F0
8C
82
82
00
10
20
ENDCHAR
STARTCHAR kgreenlandic
ENCODING 312
SWIDTH 867 0
DWIDTH 9 0
BBX 7 7 1 0
BITMAP
82
84
88
F0
8C
82
82
ENDCHAR
STARTCHAR Lacute
ENCODING 313
SWIDTH 701 0
DWIDTH 7 0
BBX 6 10 1 0
BITMAP
40
80
00
80
80
80
80
80
80
FC
ENDCHAR
STARTCHAR lacute
ENCODING 314
SWIDTH 709 0
DWIDTH 7 0
BBX 6 10 1 0
BITMAP
40
80
00
80
80
80
80
80
80
7C
ENDCHAR
STARTCHAR Lcommaaccent
ENCODING 315
SWIDTH 701 0
DWIDTH 7 0
BBX 6 10 1 -3
BITMAP
80
80
80
80
80
80
FC
00
20
20
ENDCHAR
STARTCHAR lcommaaccent
ENCODING 316
SWIDTH 709 0
DWIDTH 7 0
BBX 6 10 1 -3
BITMAP
80
80
80
80
80
80
7C
00
30
20
ENDCHAR
STARTCHAR Lcaron
ENCODING 317
SWIDTH 701 0
DWIDTH 7 0
BBX 6 7 1 0
BITMAP
90
90
80
80
80
80
FC
ENDCHAR
STARTCHAR lcaron
ENCODING 318
SWIDTH 709 0
DWIDTH 7 0
BBX 6 7 1 0
BITMAP
90
90
80
80
80
80
7C
ENDCHAR
STARTCHAR Ldot
ENCODING 319
SWIDTH 701 0
DWIDTH 7 0
BBX 6 7 1 0
BITMAP
80
80
80
88
80
80
FC
ENDCHAR
STARTCHAR ldotaccent
ENCODING 320
SWIDTH 709 0
DWIDTH 7 0
BBX 6 7 1 0
BITMAP
80
80
80
88
80
80
7C
ENDCHAR
STARTCHAR Lslash
ENCODING 321
SWIDTH 701 0
DWIDTH 7 0
BBX 7 7 0 0
BITMAP
40
40
70
C0
40
40
7E
ENDCHAR
STARTCHAR lslash
ENCODING 322
SWIDTH 709 0
DWIDTH 7 0
BBX 7 7 0 0
BITMAP
40
40
70
C0
40
40
3E
ENDCHAR
STARTCHAR Nacute
ENCODING 323
SWIDTH 936 0
DWIDTH 9 0
BBX 7 10 1 0
BITMAP
08
10
00
82
C2
A2
92
8A
86
82
ENDCHAR
STARTCHAR nacute
ENCODING 324
SWIDTH 933 0
DWIDTH 9 0
BBX 7 10 1 0
BITMAP
08
10
00
BC
C2
82
82
82
82
82
ENDCHAR
STARTCHAR Ncommaaccent
ENCODING 325
SWIDTH 936 0
DWIDTH 9 0
BBX 7 10 1 -3
BITMAP
82
C2
A2
92
8A
86
82
00
10
10
ENDCHAR
STARTCHAR ncommaaccent
ENCODING 326
SWIDTH 933 0
DWIDTH 9 0
BBX 7 10 1 -3
BITMAP
BC
C2
82
82
82
82
82
00
10
10
ENDCHAR
STARTCHAR Ncaron
ENCODING 327
SWIDTH 936 0
DWIDTH 9 0
BBX 7 10 1 0
BITMAP
24
18
00
82
C2
A2
92
8A
86
82
ENDCHAR
STARTCHAR ncaron
ENCODING 328
SWIDTH 933 0
DWIDTH 9 0
BBX 7 10 1 0
BITMAP
24
18
00
BC
C2
82
82
82
82
82
ENDCHAR
STARTCHAR napostrophe
ENCODING 329
SWIDTH 1025 0
DWIDTH 10 0
BBX 9 7 0 0
BITMAP
AF00
B080
2080
2080
2080
2080
2080
ENDCHAR
STARTCHAR Eng
ENCODING 330
SWIDTH 936 0
DWIDTH 9 0
BBX 7 7 1 0
BITMAP
C2
A2
92
8A
86
82
9C
ENDCHAR
STARTCHAR eng
ENCODING 331
SWIDTH 933 0
DWIDTH 9 0
BBX 7 7 1 0
BITMAP
BC
C2
82
82
82
82
9C
ENDCHAR
STARTCHAR Omacron
ENCODING 332
SWIDTH 983 0
DWIDTH 10 0
BBX 8 9 1 0
BITMAP
1C
00
3C
42
81
81
81
42
3C
ENDCHAR
STARTCHAR omacron
ENCODING 333
SWIDTH 983 0
DWIDTH 10 0
BBX 8 9 1 0
BITMAP
1C
00
3C
42
81
81
81
42
3C
ENDCHAR
STARTCHAR Obreve
ENCODING 334
SWIDTH 983 0
DWIDTH 10 0
BBX 8 9 1 0
BITMAP
38
00
3C
42
81
81
81
42
3C
ENDCHAR
STARTCHAR obreve
ENCODING 335
SWIDTH 983 0
DWIDTH 10 0
BBX 8 9 1 0
BITMAP
38
00
3C
42
81
81
81
42
3C
ENDCHAR
STARTCHAR Ohungarumlaut
ENCODING 336
SWIDTH 983 0
DWIDTH 10 0
BBX 8 10 1 0
BITMAP
0A
14
00
3C
42
81
81
81
42
3C
ENDCHAR
STARTCHAR ohungarumlaut
ENCODING 337
SWIDTH 983 0
DWIDTH 10 0
BBX 8 10 1 0
BITMAP
0A
14
00
3C
42
81
81
81
42
3C
ENDCHAR
STARTCHAR OE
ENCODING 338
SWIDTH 1338 0
DWIDTH 13 0
BBX 11 7 1 0
BITMAP
3FE0
4200
8200
83E0
8200
4200
3FE0
ENDCHAR
STARTCHAR oe
ENCODING 339
SWIDTH 1688 0
DWIDTH 17 0
BBX 15 7 1 0
BITMAP
3C78
4284
8102
81FE
8100
4280
3C7C
ENDCHAR
STARTCHAR Racute
ENCODING 340
SWIDTH 833 0
DWIDTH 8 0
BBX 6 10 1 0
BITMAP
10
20
00
F8
84
84
F8
90
88
84
ENDCHAR
STARTCHAR racute
ENCODING 341
SWIDTH 609 0
DWIDTH 6 0
BBX 5 10 1 0
BITMAP
10
20
00
B8
C0
80
80
80
80
80
ENDCHAR
STARTCHAR Rcommaaccent
ENCODING 342
SWIDTH 833 0
DWIDTH 8 0
BBX 6 10 1 -3
BITMAP
F8
84
84
F8
90
88
84
00
30
20
ENDCHAR
STARTCHAR rcommaaccent
ENCODING 343
SWIDTH 609 0
DWIDTH 6 0
BBX 5 10 1 -3
BITMAP
B8
C0
80
80
80
80
80
00
80
80
ENDCHAR
STARTCHAR Rcaron
ENCODING 344
SWIDTH 833 0
DWIDTH 8 0
BBX 6 10 1 0
BITMAP
48
30
00
F8
84
84
F8
90
88
84
ENDCHAR
STARTCHAR rcaron
ENCODING 345
SWIDTH 609 0
DWIDTH 6 0
BBX 5 10 1 0
BITMAP
48
30
00
B8
C0
80
80
80
80
80
ENDCHAR
STARTCHAR Sacute
ENCODING 346
SWIDTH 787 0
DWIDTH 8 0
BBX 6 10 1 0
BITMAP
10
20
00
78
80
C0
38
04
04
F8
ENDCHAR
STARTCHAR sacute
ENCODING 347
SWIDTH 787 0
DWIDTH 8 0
BBX 6 10 1 0
BITMAP
10
20
00
78
80
C0
38
04
04
F8
ENDCHAR
STARTCHAR Scircumflex
ENCODING 348
SWIDTH 787 0
DWIDTH 8 0
BBX 6 10 1 0
BITMAP
10
68
00
78
80
C0
38
04
04
F8
ENDCHAR
STARTCHAR scircumflex
ENCODING 349
SWIDTH 787 0
DWIDTH 8 0
BBX 6 10 1 0
BITMAP
10
68
00
78
80
C0
38
04
04
F8
ENDCHAR
STARTCHAR Scedilla
ENCODING 350
SWIDTH 787 0
DWIDTH 8 0
BBX 6 9 1 -2
BITMAP
78
80
C0
38
04
04
F8
10
30
ENDCHAR
STARTCHAR scedilla
ENCODING 351
SWIDTH 787 0
DWIDTH 8 0
BBX 6 9 1 -2
BITMAP
78
80
C0
38
04
04
F8
10
30
ENDCHAR
STARTCHAR Scaron
ENCODING 352
SWIDTH 787 0
DWIDTH 8 0
BBX 6 10 1 0
BITMAP
48
30
00
78
80
C0
38
04
04
F8
ENDCHAR
STARTCHAR scaron
ENCODING 353
SWIDTH 787 0
DWIDTH 8 0
BBX 6 10 1 0
BITMAP
48
30
00
78
80
C0
38
04
04
F8
ENDCHAR
STARTCHAR Tcommaaccent
ENCODING 354
SWIDTH 708 0
DWIDTH 7 0
BBX 7 10 0 -3
BITMAP
FE
10
10
10
10
10
10
00
10
10
ENDCHAR
STARTCHAR tcommaaccent
ENCODING 355
SWIDTH 708 0
DWIDTH 7 0
BBX 7 10 0 -3
BITMAP
FE
10
10
10
10
10
10
00
10
10
ENDCHAR
STARTCHAR Tcaron
ENCODING 356
SWIDTH 708 0
DWIDTH 7 0
BBX 7 10 0 0
BITMAP
24
18
00
FE
10
10
10
10
10
10
ENDCHAR
STARTCHAR tcaron
ENCODING 357
SWIDTH 708 0
DWIDTH 7 0
BBX 7 10 0 0
BITMAP
24
18
00
FE
10
10
10
10
10
10
ENDCHAR
STARTCHAR Tbar
ENCODING 358
SWIDTH 708 0
DWIDTH 7 0
BBX 7 7 0 0
BITMAP
FE
10
10
7C
10
10
10
ENDCHAR
STARTCHAR tbar
ENCODING 359
SWIDTH 708 0
DWIDTH 7 0
BBX 7 7 0 0
BITMAP
FE
10
10
7C
10
10
10
ENDCHAR
STARTCHAR Utilde
ENCODING 360
SWIDTH 891 0
DWIDTH 9 0
BBX 7 10 1 0
BITMAP
34
28
00
82
82
82
82
82
82
7C
ENDCHAR
STARTCHAR utilde
ENCODING 361
SWIDTH 931 0
DWIDTH 9 0
BBX 7 10 1 0
BITMAP
14
28
00
82
82
82
82
82
86
7A
ENDCHAR
STARTCHAR Umacron
ENCODING 362
SWIDTH 891 0
DWIDTH 9 0
BBX 7 9 1 0
BITMAP
38
00
82
82
82
82
82
82
7C
ENDCHAR
STARTCHAR umacron
ENCODING 363
SWIDTH 931 0
DWIDTH 9 0
BBX 7 9 1 0
BITMAP
38
00
82
82
82
82
82
86
7A
ENDCHAR
STARTCHAR Ubreve
ENCODING 364
SWIDTH 891 0
DWIDTH 9 0
BBX 7 9 1 0
BITMAP
38
00
82
82
82
82
82
82
7C
ENDCHAR
STARTCHAR ubreve
ENCODING 365
SWIDTH 931 0
DWIDTH 9 0
BBX 7 9 1 0
BITMAP
38
00
82
82
82
82
82
86
7A
ENDCHAR
STARTCHAR Uring
ENCODING 366
SWIDTH 891 0
DWIDTH 9 0
BBX 7 10 1 0
BITMAP
38
38
00
82
82
82
82
82
82
7C
ENDCHAR
STARTCHAR uring
ENCODING 367
SWIDTH 931 0
DWIDTH 9 0
BBX 7 10 1 0
BITMAP
38
38
00
82
82
82
82
82
86
7A
ENDCHAR
STARTCHAR Uhungarumlaut
ENCODING 368
SWIDTH 891 0
DWIDTH 9 0
BBX 7 10 1 0
BITMAP
14
28
00
82
82
82
82
82
82
7C
ENDCHAR
STARTCHAR uhungarumlaut
ENCODING 369
SWIDTH 931 0
DWIDTH 9 0
BBX 7 10 1 0
BITMAP
14
28
00
82
82
82
82
82
86
7A
ENDCHAR
STARTCHAR Uogonek
ENCODING 370
SWIDTH 891 0
DWIDTH 9 0
BBX 7 9 1 -2
BITMAP
82
82
82
82
82
82
7C
10
18
ENDCHAR
STARTCHAR uogonek
ENCODING 371
SWIDTH 931 0
DWIDTH 9 0
BBX 7 9 1 -2
BITMAP
82
82
82
82
82
86
7A
04
06
ENDCHAR
STARTCHAR Wcircumflex
ENCODING 372
SWIDTH 1266 0
DWIDTH 13 0
BBX 11 10 1 0
BITMAP
0400
0A00
0100
8420
8A20
8A20
5240
5140
5140
2080
ENDCHAR
STARTCHAR wcircumflex
ENCODING 373
SWIDTH 1266 0
DWIDTH 13 0
BBX 11 10 1 0
BITMAP
0400
0A00
0100
8420
8A20
8A20
5240
5140
5140
2080
ENDCHAR
STARTCHAR Ycircumflex
ENCODING 374
SWIDTH 763 0
DWIDTH 7 0
BBX 7 10 0 0
BITMAP
08
34
00
82
44
28
10
10
10
10
ENDCHAR
STARTCHAR ycircumflex
ENCODING 375
SWIDTH 911 0
DWIDTH 9 0
BBX 7 10 1 0
BITMAP
20
58
00
82
82
82
86
7A
04
F8
ENDCHAR
STARTCHAR Ydieresis
ENCODING 376
SWIDTH 763 0
DWIDTH 7 0
BBX 7 9 0 0
BITMAP
28
00
82
44
28
10
10
10
10
ENDCHAR
STARTCHAR Zacute
ENCODING 377
SWIDTH 728 0
DWIDTH 7 0
BBX 6 10 1 0
BITMAP
10
20
00
FC
08
10
20
20
40
FC
ENDCHAR
STARTCHAR zacute
ENCODING 378
SWIDTH 728 0
DWIDTH 7 0
BBX 6 10 1 0
BITMAP
10
20
00
FC
08
10
20
20
40
FC
ENDCHAR
STARTCHAR Zdotaccent
ENCODING 379
SWIDTH 728 0
DWIDTH 7 0
BBX 6 9 1 0
BITMAP
20
00
FC
08
10
20
20
40
FC
ENDCHAR
STARTCHAR zdotaccent
ENCODING 380
SWIDTH 728 0
DWIDTH 7 0
BBX 6 9 1 0
BITMAP
20
00
FC
08
10
20
20
40
FC
ENDCHAR
STARTCHAR Zcaron
ENCODING 381
SWIDTH 728 0
DWIDTH 7 0
BBX 6 10 1 0
BITMAP
48
30
00
FC
08
10
20
20
40
FC
ENDCHAR
STARTCHAR zcaron
ENCODING 382
SWIDTH 728 0
DWIDTH 7 0
BBX 6 10 1 0
BITMAP
48
30
00
FC
08
10
20
20
40
FC
ENDCHAR
STARTCHAR florin
ENCODING 402
SWIDTH 835 0
DWIDTH 8 0
BBX 8 7 0 0
BITMAP
07
08
3E
08
10
10
E0
ENDCHAR
STARTCHAR AEacute
ENCODING 508
SWIDTH 1172 0
DWIDTH 12 0
BBX 11 10 0 0
BITMAP
0080
0100
0000
0FE0
1400
1400
27E0
7C00
4400
87E0
ENDCHAR
STARTCHAR aeacute
ENCODING 509
SWIDTH 1551 0
DWIDTH 15 0
BBX 13 10 1 0
BITMAP
0100
0200
0000
7CE0
0310
0208
3FF8
C200
8300
7CF8
ENDCHAR
STARTCHAR Oslashacute
ENCODING 510
SWIDTH 983 0
DWIDTH 10 0
BBX 8 11 1 -1
BITMAP
04
08
02
3C
46
89
91
91
62
3C
40
ENDCHAR
STARTCHAR oslashacute
ENCODING 511
SWIDTH 983 0
DWIDTH 10 0
BBX 8 11 1 -1
BITMAP
04
08
02
3C
46
89
91
91
62
3C
40
ENDCHAR
STARTCHAR dotlessj
ENCODING 567
SWIDTH 590 0
DWIDTH 6 0
BBX 5 7 0 0
BITMAP
08
08
08
08
08
08
F0
ENDCHAR
STARTCHAR circumflex
ENCODING 710
SWIDTH 527 0
DWIDTH 5 0
BBX 4 2 1 6
BITMAP
60
90
ENDCHAR
STARTCHAR caron
ENCODING 711
SWIDTH 527 0
DWIDTH 5 0
BBX 4 2 1 6
BITMAP
90
60
ENDCHAR
STARTCHAR breve
ENCODING 728
SWIDTH 527 0
DWIDTH 5 0
BBX 3 1 1 6
BITMAP
E0
ENDCHAR
STARTCHAR dotaccent
ENCODING 729
SWIDTH 527 0
DWIDTH 5 0
BBX 1 1 2 6
BITMAP
80
ENDCHAR
STARTCHAR ring
ENCODING 730
SWIDTH 527 0
DWIDTH 5 0
BBX 3 2 1 6
BITMAP
E0
E0
ENDCHAR
STARTCHAR ogonek
ENCODING 731
SWIDTH 527 0
DWIDTH 5 0
BBX 2 2 2 -2
BITMAP
80
C0
ENDCHAR
STARTCHAR tilde
ENCODING 732
SWIDTH 527 0
DWIDTH 5 0
BBX 4 2 1 6
BITMAP
50
A0
ENDCHAR
STARTCHAR hungarumlaut
ENCODING 733
SWIDTH 527 0
DWIDTH 5 0
BBX 4 2 1 6
BITMAP
50
A0
ENDCHAR
STARTCHAR commaaccent
ENCODING 806
SWIDTH 527 0
DWIDTH 5 0
BBX 1 2 2 -3
BITMAP
80
80
ENDCHAR
STARTCHAR mu
ENCODING 956
SWIDTH 705 0
DWIDTH 7 0
BBX 6 7 1 -2
BITMAP
44
44
88
C8
F8
80
80
ENDCHAR
STARTCHAR Wgrave
ENCODING 7808
SWIDTH 1266 0
DWIDTH 13 0
BBX 11 10 1 0
BITMAP
0800
0400
0000
8420
8A20
8A20
5240
5140
5140
2080
ENDCHAR
STARTCHAR wgrave
ENCODING 7809
SWIDTH 1266 0
DWIDTH 13 0
BBX 11 10 1 0
BITMAP
0800
0400
0000
8420
8A20
8A20
5240
5140
5140
2080
ENDCHAR
STARTCHAR Wacute
ENCODING 7810
SWIDTH 1266 0
DWIDTH 13 0
BBX 11 10 1 0
BITMAP
0200
0400
0000
8420
8A20
8A20
5240
5140
5140
2080
ENDCHAR
STARTCHAR wacute
ENCODING 7811
SWIDTH 1266 0
DWIDTH 13 0
BBX 11 10 1 0
BITMAP
0200
0400
0000
8420
8A20
8A20
5240
5140
5140
2080
ENDCHAR
STARTCHAR Wdieresis
ENCODING 7812
SWIDTH 1266 0
DWIDTH 13 0
BBX 11 9 1 0
BITMAP
0A00
0000
8420
8A20
8A20
5240
5140
5140
2080
ENDCHAR
STARTCHAR wdieresis
ENCODING 7813
SWIDTH 1266 0
DWIDTH 13 0
BBX 11 9 1 0
BITMAP
0A00
0000
8420
8A20
8A20
5240
5140
5140
2080
ENDCHAR
STARTCHAR Ygrave
ENCODING 7922
SWIDTH 763 0
DWIDTH 7 0
BBX 7 10 0 0
BITMAP
20
10
00
82
44
28
10
10
10
10
ENDCHAR
STARTCHAR ygrave
ENCODING 7923
SWIDTH 911 0
DWIDTH 9 0
BBX 7 10 1 0
BITMAP
20
10
00
82
82
82
86
7A
04
F8
ENDCHAR
STARTCHAR endash
ENCODING 8211
SWIDTH 419 0
DWIDTH 4 0
BBX 4 1 0 3
BITMAP
F0
ENDCHAR
STARTCHAR emdash
ENCODING 8212
SWIDTH 1000 0
DWIDTH 10 0
BBX 10 1 0 3
BITMAP
FFC0
ENDCHAR
STARTCHAR quoteleft
ENCODING 8216
SWIDTH 163 0
DWIDTH 2 0
BBX 1 2 0 5
BITMAP
80
80
ENDCHAR
STARTCHAR quoteright
ENCODING 8217
SWIDTH 163 0
DWIDTH 2 0
BBX 1 2 0 5
BITMAP
80
80
ENDCHAR
STARTCHAR quotesinglbase
ENCODING 8218
SWIDTH 163 0
DWIDTH 2 0
BBX 1 2 0 -1
BITMAP
80
80
ENDCHAR
STARTCHAR quotedblleft
ENCODING 8220
SWIDTH 303 0
DWIDTH 3 0
BBX 3 2 0 5
BITMAP
A0
A0
ENDCHAR
STARTCHAR quotedblright
ENCODING 8221
SWIDTH 303 0
DWIDTH 3 0
BBX 3 2 0 5
BITMAP
A0
A0
ENDCHAR
STARTCHAR quotedblbase
ENCODING 8222
SWIDTH 303 0
DWIDTH 3 0
BBX 3 2 0 -1
BITMAP
A0
A0
ENDCHAR
STARTCHAR dagger
ENCODING 8224
SWIDTH 500 0
DWIDTH 5 0
BBX 3 7 1 0
BITMAP
40
40
E0
40
40
40
40
ENDCHAR
STARTCHAR daggerdbl
ENCODING 8225
SWIDTH 500 0
DWIDTH 5 0
BBX 3 7 1 0
BITMAP
40
40
E0
40
E0
40
40
ENDCHAR
STARTCHAR bullet
ENCODING 8226
SWIDTH 352 0
DWIDTH 4 0
BBX 2 2 1 2
BITMAP
C0
C0
ENDCHAR
STARTCHAR ellipsis
ENCODING 8230
SWIDTH 555 0
DWIDTH 6 0
BBX 5 1 1 0
BITMAP
A8
ENDCHAR
STARTCHAR perthousand
ENCODING 8240
SWIDTH 1401 0
DWIDTH 14 0
BBX 14 7 0 0
BITMAP
6100
9200
6400
0800
1318
24A4
4318
ENDCHAR
STARTCHAR guilsinglleft
ENCODING 8249
SWIDTH 257 0
DWIDTH 3 0
BBX 2 3 0 2
BITMAP
40
80
40
ENDCHAR
STARTCHAR guilsinglright
ENCODING 8250
SWIDTH 257 0
DWIDTH 3 0
BBX 2 3 0 2
BITMAP
80
40
80
ENDCHAR
STARTCHAR fraction
ENCODING 8260
SWIDTH 200 0
DWIDTH 2 0
BBX 6 7 -2 0
BITMAP
04
08
10
20
20
40
80
ENDCHAR
STARTCHAR Euro
ENCODING 8364
SWIDTH 833 0
DWIDTH 8 0
BBX 7 7 1 0
BITMAP
3C
42
FC
40
F8
42
3C
ENDCHAR
STARTCHAR trademark
ENCODING 8482
SWIDTH 773 0
DWIDTH 8 0
BBX 7 3 0 4
BITMAP
F2
5E
5A
ENDCHAR
STARTCHAR partialdiff
ENCODING 8706
SWIDTH 790 0
DWIDTH 8 0
BBX 7 7 0 0
BITMAP
3C
02
02
7A
86
84
78
ENDCHAR
STARTCHAR minus
ENCODING 8722
SWIDTH 634 0
DWIDTH 6 0
BBX 5 1 1 3
BITMAP
F8
ENDCHAR
STARTCHAR uni2215
ENCODING 8725
SWIDTH 200 0
DWIDTH 2 0
BBX 6 7 -2 0
BITMAP
04
08
10
20
20
40
80
ENDCHAR
STARTCHAR approxequal
ENCODING 8776
SWIDTH 634 0
DWIDTH 6 0
BBX 5 4 1 2
BITMAP
68
90
68
90
ENDCHAR
STARTCHAR notequal
ENCODING 8800
SWIDTH 634 0
DWIDTH 6 0
BBX 5 7 1 0
BITMAP
10
10
F8
20
F8
40
40
ENDCHAR
STARTCHAR lessequal
ENCODING 8804
SWIDTH 634 0
DWIDTH 6 0
BBX 5 6 1 0
BITMAP
08
70
80
70
08
F8
ENDCHAR
STARTCHAR greaterequal
ENCODING 8805
SWIDTH 634 0
DWIDTH 6 0
BBX 5 6 1 0
BITMAP
80
70
08
70
80
F8
ENDCHAR
STARTCHAR fi
ENCODING 64257
SWIDTH 1104 0
DWIDTH 11 0
BBX 9 7 1 0
BITMAP
7C80
8080
8080
FC80
8080
8080
8080
ENDCHAR
STARTCHAR fl
ENCODING 64258
SWIDTH 1527 0
DWIDTH 15 0
BBX 14 7 1 0
BITMAP
7C80
8080
8080
FC80
8080
8080
807C
ENDCHAR
STARTCHAR .notdef
ENCODING -1
SWIDTH 1000 0
DWIDTH 10 0
BBX 1 1 0 0
BITMAP
00
ENDCHAR
ENDFONT
